<?xml version="1.0" encoding="UTF-8" standalone="no"?>
<svg
   xmlns:dc="http://purl.org/dc/elements/1.1/"
   xmlns:cc="http://creativecommons.org/ns#"
   xmlns:rdf="http://www.w3.org/1999/02/22-rdf-syntax-ns#"
   xmlns:svg="http://www.w3.org/2000/svg"
   xmlns="http://www.w3.org/2000/svg"
   id="svg4"
   version="1.1"
   viewBox="0 0 16 16"
   height="16pt"
   width="16pt"
   class="pass-SocialButton-icon pass-SocialButton-icon--apple">
  <metadata
     id="metadata10">
    <rdf:RDF>
      <cc:Work
         rdf:about="">
        <dc:format>image/svg+xml</dc:format>
        <dc:type
           rdf:resource="http://purl.org/dc/dcmitype/StillImage" />
      </cc:Work>
    </rdf:RDF>
  </metadata>
  <defs
     id="defs8" />
  <path
     id="path2"
     style="stroke: none; fill-rule: nonzero; fill: rgb(0, 0, 0); fill-opacity: 1;"
     d="M 14.152344 12.257812 C 13.921875 12.792969 13.648438 13.28125 13.332031 13.734375 C 12.902344 14.347656 12.546875 14.773438 12.277344 15.007812 C 11.855469 15.398438 11.402344 15.59375 10.917969 15.605469 C 10.570312 15.605469 10.152344 15.507812 9.664062 15.308594 C 9.175781 15.109375 8.726562 15.007812 8.316406 15.007812 C 7.886719 15.007812 7.421875 15.109375 6.929688 15.308594 C 6.433594 15.507812 6.035156 15.613281 5.730469 15.621094 C 5.265625 15.640625 4.804688 15.4375 4.339844 15.007812 C 4.046875 14.753906 3.679688 14.3125 3.238281 13.6875 C 2.761719 13.019531 2.375 12.25 2.070312 11.367188 C 1.742188 10.414062 1.578125 9.496094 1.578125 8.601562 C 1.578125 7.582031 1.800781 6.699219 2.242188 5.960938 C 2.589844 5.367188 3.050781 4.898438 3.628906 4.554688 C 4.207031 4.210938 4.835938 4.039062 5.507812 4.027344 C 5.875 4.027344 6.359375 4.140625 6.960938 4.363281 C 7.558594 4.589844 7.941406 4.703125 8.113281 4.703125 C 8.238281 4.703125 8.664062 4.570312 9.390625 4.304688 C 10.074219 4.058594 10.652344 3.957031 11.125 3.996094 C 12.40625 4.097656 13.371094 4.605469 14.011719 5.515625 C 12.863281 6.210938 12.296875 7.183594 12.308594 8.433594 C 12.320312 9.40625 12.671875 10.214844 13.367188 10.859375 C 13.679688 11.15625 14.03125 11.386719 14.421875 11.550781 C 14.335938 11.796875 14.246094 12.03125 14.152344 12.257812 Z M 11.210938 0.679688 C 11.210938 1.445312 10.933594 2.15625 10.375 2.816406 C 9.707031 3.597656 8.894531 4.050781 8.015625 3.980469 C 8.003906 3.886719 8 3.792969 8 3.691406 C 8 2.957031 8.316406 2.175781 8.882812 1.535156 C 9.167969 1.210938 9.527344 0.941406 9.960938 0.726562 C 10.394531 0.511719 10.808594 0.394531 11.195312 0.375 C 11.207031 0.476562 11.210938 0.582031 11.210938 0.679688 Z M 11.210938 0.679688 " />
</svg>