<?xml version="1.0" standalone="no"?>
<!DOCTYPE svg PUBLIC "-//W3C//DTD SVG 20010904//EN"
 "http://www.w3.org/TR/2001/REC-SVG-20010904/DTD/svg10.dtd">
<svg version="1.0" xmlns="http://www.w3.org/2000/svg"
 width="130.000000pt" height="130.000000pt" viewBox="0 0 130.000000 130.000000"
 preserveAspectRatio="xMidYMid meet">
<metadata>
Created by potrace 1.16, written by Peter Selinger 2001-2019
</metadata>
<g transform="translate(0.000000,130.000000) scale(0.100000,-0.100000)"
fill="#1178f3" stroke="none">
<path d="M491 1234 c-192 -52 -354 -207 -418 -399 -22 -67 -26 -98 -26 -190 0
-93 4 -122 27 -188 55 -161 164 -286 311 -357 44 -21 97 -42 118 -45 l37 -7 0
211 0 211 -70 0 -70 0 0 90 0 90 69 0 68 0 5 98 c8 145 43 212 138 255 37 17
62 21 138 20 51 -1 97 -5 102 -8 6 -3 10 -42 10 -86 l0 -79 -59 0 c-89 0 -105
-17 -109 -119 l-4 -81 87 0 c77 0 86 -2 81 -17 -3 -10 -8 -40 -12 -68 -13 -93
-15 -95 -89 -95 l-65 0 0 -210 c0 -242 -8 -228 104 -186 201 76 346 246 386
454 19 93 8 231 -23 322 -66 186 -226 334 -417 385 -71 19 -248 18 -319 -1z"/>
</g>
</svg>