<svg height="23" width="80" xmlns="http://www.w3.org/2000/svg" viewBox="0 0 611.19 167.44"
focusable="false" aria-hidden="true">
<style>.G<!-- -->{<!-- -->fill:#b2a183<!-- -->}<!-- -->.H<!-- -->{<!-- -->fill:#302b25<!-- -->}<!-- -->.I<!-- -->{<!-- -->fill:#4d7537<!-- -->}</style>
<path d="M273.55 76v-.87a3.17 3.17 0 0 0 0 .87z" class="H"></path>
<path d="M76 72a21.06 21.06 0 1 1 9.22-28.31A21 21 0 0 1 76 72z" class="G"></path>
<path d="M118.6 59.3l-1.42-2.58z" class="I"></path>
<path d="M507.08 103.3c.3-1.4.16-.72 0 0z" fill="#4097f8"></path>
<path d="M539.4 155.5a10.28 10.28 0 0 1-1.65-4.61c-.65-4.46-5.47-8.1-3.7-13.8.12-.36.27-.78.43-1.22l-1-1.52c-6.58-9.45-2.37-12.7 1.46-22.67.16-.4 1.54 5.3 1.6 4.77a56.57 56.57 0 0 1 .53-9.08c1.2-7.18 2.65-10.7 5.9-15.64a22 22 0 0 1 5.18-5.25c-1.94-6.46-8.83-12.93-12.74-19.3a38.77 38.77 0 0 0-12.92 9.75q-7.8 9-10.4 22.6c3.63-.77 7.7.3 6.64 3.78-1.87 6.22-5.22 10.06-7.95 10.85v.22a71.69 71.69 0 0 0 3 21.1 51.06 51.06 0 0 0 8.64 16.94 40.71 40.71 0 0 0 10.73 9.5l.72-.4a11.52 11.52 0 0 0 5.52-6.03z" class="G"></path>
<path d="M611.2 60.5V39.82c0-4.74-1.1-8.4-3.16-10.88s-5.06-3.74-9-3.74a12.21 12.21 0 0 0-5.42 1.14c3.45 8.46 1.76 19.08 6.12 26.84 3.2 5.63 7.4 7.82 11.46 7.3z" class="H"></path>
<path d="M536.62 112.14c-.5-.6-1-1.92-1.67-.46-4.54 9.68-8 13.22-1.46 22.67l1 1.52c.82-2.14 2.23-5.1 3.54-8a49.77 49.77 0 0 1-1.49-12.69 61.04 61.04 0 0 1 .08-3.04z" class="I"></path>
<path d="M552 158c-.38-2.22-8.76 2.92-12.58-2.47a11.52 11.52 0 0 1-5.54 6l-.72.4c.94.57 1.9 1.12 2.9 1.62a37.69 37.69 0 0 0 13.45 3.73c1.34-4 2.77-7.7 2.5-9.27zm38.1-128.73c-2.07 2.66-3.15 6.64-3.15 11.88v16c2.33 5.42 3.33 11.34 2.33 15.92l.36-1.62c0-.25.1-.5.15-.7s.14-.6.17-.77 0-.18 0 0-.08.38-.17.77c0 .2-.1.45-.15.7l-.36 1.62c-1.53 7.1 1.4 15.8 6.75 20.73.18.17-6.37 8.38-12.83 6.27a44.77 44.77 0 0 1 2.34 15.13c0 7.3-1.08 13.38-3.32 18.2a24.58 24.58 0 0 1-8.89 10.71 22.45 22.45 0 0 1-5.28 2.43c-.2 4.26 0 8.92 1 10.48a57 57 0 0 0 5.25 4.51c.84-.52 1.65-1.06 2.45-1.64a63.68 63.68 0 0 0 10.21-9.64v2.5c0 4.73 1.16 8.3 3.4 10.87a12.06 12.06 0 0 0 17.45.17c2.23-2.5 3.4-6.14 3.4-11v-2.1c-6.66-6.7-7.52-17.92-5.9-26.52.45-2.34 2.07-11 5.48-5.12l.4.73V60.5c-4.06.46-8.27-1.68-11.43-7.3-4.36-7.76-2.67-18.38-6.12-26.84a9.77 9.77 0 0 0-3.56 2.93z" class="G"></path>
<path d="M599.78 124.34c-1.63 8.6 4.75 19.6 11.4 26.32v-30.9c-.14-.24-1.1-3.93-1.23-4.18-3.4-5.88-9.73 6.43-10.18 8.77zM568 146.54a23.19 23.19 0 0 1-7 1.06 22.33 22.33 0 0 1-12.35-3.6 25.27 25.27 0 0 1-8.88-11 35 35 0 0 1-1.77-5.1l-3.54 8-.43 1.22c-1.77 5.7 3.05 9.34 3.7 13.8a10.28 10.28 0 0 0 1.65 4.61c3.82 5.4 12.2.25 12.58 2.47.28 1.6-1.15 5.3-2.5 9.3 1.17.1 2.36.17 3.57.17a40.49 40.49 0 0 0 8-.74 32.58 32.58 0 0 0 4.82-1.17 41 41 0 0 0 8.43-4A57 57 0 0 1 569 157c-.95-1.54-1.16-6.2-1-10.46zm21.27-73.46c1-4.58 0-10.5-2.33-15.92V79a52.15 52.15 0 0 0-14.86-11.7A36.43 36.43 0 0 0 561 64a55.67 55.67 0 0 0-7.63-.5c-1.24 0-2.45.05-3.65.14a40.88 40.88 0 0 0-14.33 3.56c.58 1 1.17 1.9 1.74 2.87a12.1 12.1 0 0 1 .18 12.08 9.71 9.71 0 0 0-1.05 2.85c-1.22 6.28 8.24 4.18 11.9 1.52a20.6 20.6 0 0 1 12.62-4h.22a21.1 21.1 0 0 1 12.21 3.9 26.81 26.81 0 0 1 9 11.21 45.45 45.45 0 0 1 1 2.47c6.46 2.1 13-6.1 12.83-6.27-5.36-4.95-8.3-13.66-6.77-20.75z" class="I"></path>
<path d="M525.82 102.9c1.18-9.9-10.08-4.15-13.7-3.38a78.73 78.73 0 0 0-1.31 14.63c2.73-.8 13.46 1.84 15.02-11.25zm-35.12 37.15c-1.1 3.6.48 10.36-1.3 14.24 2.15 1.12 4.58 1 6.14-2.43 3.87-8.33 4.2-6.15 6.64-2.48.16-.26.34-.52.5-.78 1.83-3.07 2.74-5.8 2.74-8.06a7.58 7.58 0 0 0-2.49-6.06 9.28 9.28 0 0 0-6.39-2.16A8.59 8.59 0 0 0 491 134l-1.63 1.5a4.58 4.58 0 0 1 1.32 4.55zm16.14-35.42a43.75 43.75 0 0 0-5.34-18.8 40.79 40.79 0 0 0-3.79-5.75c-7.23 2.1-16.3 3.65-17.43-1.24-.14-.58-4.7-8.33-7.72-14.34a59.29 59.29 0 0 0-12.92-1.35h-.74a66.75 66.75 0 0 0-7 .46c-.38 1.25-1.76 2.42-4.8 4a58.64 58.64 0 0 0-5.91 3.33c1.67 3.4 7.2 1.62 7.46 7.82a19.66 19.66 0 0 0 .83 4.18A22.08 22.08 0 0 1 458.8 81h.1c6.64 0 12 2.16 16.1 6.48s6.48 10.88 7.05 19.68h-20.4c8.78 3.15 19.2 5.73 21.7 14.54h2.36c6.72 0 11.95-1 15.6-2.83 2.85-1.52 4.58-4.3 5.25-8.38a18.4 18.4 0 0 1 .26-5.86z" class="H"></path>
<path d="M477 165.7l1.23-.32a5.17 5.17 0 0 0-.9-.06z" class="G"></path>
<path d="M421.67 117.7c-1.7-4-9.87-3.77-12.1-7.24a73.79 73.79 0 0 0-.16 4.74c0 16.12 4.57 28.74 13.7 38.12a42.94 42.94 0 0 0 3.37 3.11l-.58-4.65c-1.58-10.8.1-24.07-4.23-34.08z" class="I"></path>
<path d="M441.17 70.94a58.64 58.64 0 0 1 5.91-3.33c3-1.58 4.4-2.75 4.8-4a56.81 56.81 0 0 0-11.54 2.59 26.07 26.07 0 0 0 .49 3.71 3.78 3.78 0 0 0 .35 1.03z" class="H"></path>
<path d="M461.67 107.16h-26c.82-8.63 3.32-15.2 7.46-19.6a19.91 19.91 0 0 1 6.35-4.62 19.66 19.66 0 0 1-.83-4.18c-.25-6.2-5.8-4.43-7.46-7.82a3.78 3.78 0 0 1-.35-1 26.07 26.07 0 0 1-.49-3.71c-.57.2-1.14.4-1.7.6a45 45 0 0 0-16 10.62 48 48 0 0 0-9.79 16.69 63.08 63.08 0 0 0-3.24 16.35c2.23 3.47 9 4.6 10.74 8.6 4.3 10 4 21.88 5.6 32.72.2 1.4.4 3 .58 4.65q12.42 10.3 32.42 10.92c.83.08 1.74.08 2.66.08a63.28 63.28 0 0 0 15.38-1.78l.33-.38c-.3 0-.6.05-.92.1-6.4 1.08-2.42-2.6-3.1-6.1-.37-2-9.23-7.4-9-9.06a35.98 35.98 0 0 1-3.51.18 13 13 0 0 1-1.91-.09 22.62 22.62 0 0 1-10.63-3.33 24.52 24.52 0 0 1-9.14-9.87 35.23 35.23 0 0 1-3.48-15.44h47.7c-2.5-8.8-12.9-11.38-21.7-14.53z" class="G"></path>
<path d="M497.7 80.08a43.25 43.25 0 0 0-12.32-10.62 43.86 43.86 0 0 0-12.83-5c3 6 7.58 13.76 7.72 14.34 1.13 4.93 10.2 3.4 17.43 1.28z" class="I"></path><g class="H">
<path d="M477.47 145.36a12.92 12.92 0 0 1 8.34 5.61 10.15 10.15 0 0 0 3.57 3.32c1.8-3.88.2-10.65 1.3-14.24a4.58 4.58 0 0 0-1.37-4.57l-6.18 5.64a65.88 65.88 0 0 1-5.67 4.24z"></path>
<path d="M495.52 151.86c-1.56 3.38-4 3.55-6.14 2.43a10.15 10.15 0 0 1-3.57-3.32 12.92 12.92 0 0 0-8.34-5.61l-1 .66a26.27 26.27 0 0 1-7.3 3.33 28.26 28.26 0 0 1-4.88.89c-.24 1.67 8.62 7 9 9.06.67 3.52-3.32 7.2 3.1 6.1.32 0 .62-.08.92-.1a5.17 5.17 0 0 1 .9.06c.83-.23 1.64-.47 2.43-.74a48 48 0 0 0 13.79-7.07 34.78 34.78 0 0 0 7.72-8.18c-2.42-3.67-2.75-5.85-6.62 2.48zm11.32-47.23a18.4 18.4 0 0 0-.26 5.86 26.69 26.69 0 0 0 .31-4.16l-.05-1.7z"></path></g>
<path d="M388.54 144c-1.45 2.2-4.18 17.6-5.7 17.93-8 1.8-15.1-2.12-17.7-9.62a10.37 10.37 0 0 1-.53-2.49 32.67 32.67 0 0 1-6.35.57 13 13 0 0 1-1.9-.09 22.82 22.82 0 0 1-9-2.42c-.72 1.7-1.13 3.12-.92 3.82 1.46 4.93-.62 9.77-4.17 13.73a65.61 65.61 0 0 0 14.1 1.9c.9.08 1.74.08 2.65.08a58.76 58.76 0 0 0 19.1-2.81 47.8 47.8 0 0 0 13.78-7.07 32.54 32.54 0 0 0 8.23-9c1.82-3.07 2.74-5.8 2.74-8.06a7.82 7.82 0 0 0-2.41-6.06 9.63 9.63 0 0 0-6.39-2.16 9.24 9.24 0 0 0-4.92 1.19c2.68 1.4-.5 10.44-.6 10.56zm-5.62-74.54a43.7 43.7 0 0 0-12.48-4.88l.56 1.22c.75 1.65-3.05 12.1.14 12.15 4.2.06 7.23-5.8 10.37-2.4 4.4 4.78 7.77 5.64 5.67 12.68.05-.14.08-.26.1-.3 0 .07-.06.22-.15.5-.22.72-3.83.27-3.87.4s1.86 2.13-5.38 7.5l-.27.2a45 45 0 0 1 2 10.64h-25.74c.4 3.24 1.33 6 6.22 9.84a77.2 77.2 0 0 0 6.21 4.7h10c.46-.3.92-.6 1.4-1 1.35-1 2.54-.42 3.46 1h2.1c6.64 0 11.88-1 15.6-2.83 2.85-1.55 4.57-4.43 5.2-8.64a55.29 55.29 0 0 1-2.85-8.94 6.57 6.57 0 0 1 .89-3.71 34 34 0 0 1-2.7-9.69c0-.34-.1-.94-.2-1.74-.06-.1-.1-.22-.17-.32a42.13 42.13 0 0 0-16.13-16.37z" class="G"></path><path d="M335.6 86.62a3.49 3.49 0 0 1 3.27 3.08 22.58 22.58 0 0 1 1.71-2.14 20.35 20.35 0 0 1 4.84-3.87l-.4-4c-.45-3.37 9.34-13 13.14-16.48h-1.83a58.4 58.4 0 0 0-20.26 3.66 39.2 39.2 0 0 0-2.2.93c.02 5-2.26 18.25 1.72 18.82z" class="I"></path>
<path d="M323.35 149.1a13.61 13.61 0 0 0 .1-4.75 12.19 12.19 0 0 0-.1 4.75z" class="H"></path><path d="M323.22 139.34c0 .3-.08.57-.1.83v.05a8.72 8.72 0 0 1 .11-.88z" fill="#fff"></path>
<path d="M309.82 135.3a33.82 33.82 0 0 0 9.72 3.13 7 7 0 0 1 4.06 2.7c0-.23-.43-1.48-.38-1.8l.27-2.43c0 .14-.14 1.33-.27 2.43.76-6.5 7.17-11.37 2.8-18-3-4.43-5-9.46-8.4-13.57s-6.27-2.72-9.16-7.28a66.7 66.7 0 0 0-1.6 14.7 64.23 64.23 0 0 0 2.96 20.13zm67.86-14.57l-1.4 1h4.87c-.92-1.42-2.14-2-3.46-1z" class="G"></path>
<path d="M356.35 81c6.64 0 12 2.16 16.1 6.48a23.37 23.37 0 0 1 5.15 9l.27-.2c7.24-5.37 6.8-.18 9-7.1.1-.37.22-.7.3-1 2.1-7-1.27-7.9-5.67-12.68-3.14-3.4-6.17 2.45-10.37 2.4-3.2 0 .6-10.5-.14-12.15l-.56-1.22a58.33 58.33 0 0 0-12.28-1.4c-3.8 3.5-13.6 13.1-13.14 16.48.2 1.6.33 2.9.4 4A21.51 21.51 0 0 1 356.26 81z" class="I"></path>
<path d="M317.62 107.8c3.43 4.1 5.42 9.14 8.4 13.57 4.38 6.6-2 11.47-2.8 18-.05.33-.08.6-.1.84 0-.26.07-.54.1-.83a8.72 8.72 0 0 0-.08.88c.74 1.08.55 2.52.3 4.12a13.61 13.61 0 0 1-.1 4.75 6.1 6.1 0 0 0 .6 1.65c2 3.57 3.3 6.47 4.45 8.88a47.25 47.25 0 0 0 13.85 5.84c3.55-4 5.63-8.8 4.17-13.73-.2-.7.2-2.13.92-3.82-.55-.28-1.1-.57-1.63-.9a24.3 24.3 0 0 1-9-9.87 34.18 34.18 0 0 1-3.58-15.44h33.17a77.2 77.2 0 0 1-6.21-4.7c-4.9-3.84-5.8-6.6-6.22-9.84H333.1c.78-7.34 2.72-13.17 5.77-17.46a3.49 3.49 0 0 0-3.27-3.08c-4-.57-1.7-13.82-1.7-18.88a43.26 43.26 0 0 0-13.75 9.69 46.56 46.56 0 0 0-9.88 16.69 60.85 60.85 0 0 0-1.8 6.39c2.9 4.53 5.73 3.14 9.16 7.25z" class="H"></path>
<path d="M401.2 101.3a55.29 55.29 0 0 0 2.85 8.94 26.09 26.09 0 0 0 .28-3.9 41.74 41.74 0 0 0-.29-4.87l-1.95-3.88a6.57 6.57 0 0 0-.89 3.71z" class="G"></path><g fill="#4097f8">
<path d="M387.28 87.93s0 .17-.1.3a1.67 1.67 0 0 1-.05.18l.15-.5zM386.63 90.05l.5-1.63q-.12.4-.24.78z"></path>
<path d="M387.13 88.42a1.67 1.67 0 0 0 .05-.18l-.3 1q.1-.4.24-.82z"></path></g>
<path d="M402.1 97.58l1.95 3.88a44.33 44.33 0 0 0-4.86-15.31l.2 1.74a34 34 0 0 0 2.7 9.69zm-78.75 51.52a12.19 12.19 0 0 1 .1-4.75c.24-1.6.43-3-.3-4.12v-.05c-.56-.8-1.64-1.4-3.57-1.73a33.82 33.82 0 0 1-9.72-3.13 46.13 46.13 0 0 0 10.82 18 42.92 42.92 0 0 0 7.76 6.29l-4.45-8.88a6.1 6.1 0 0 1-.63-1.63z" class="G"></path>
<path d="M388.54 144l.24-.36z" fill="#fff"></path><g class="H">
<path d="M380.6 141.12A69.11 69.11 0 0 1 374 146a26.51 26.51 0 0 1-7.39 3.33l-2 .5a10.37 10.37 0 0 0 .53 2.49c2.6 7.5 9.8 12.14 17.82 10.3 3.13-.72 4.14-16.4 5.6-18.6 3.85-5.88 3.28-9.18.6-10.52a6.07 6.07 0 0 0-.73.47 228.8 228.8 0 0 1-7.82 7.16zm-323.36 22a12.75 12.75 0 0 0 6 3.77 13.38 13.38 0 0 0 .77-2.16c1.35-4.93 9.3-6.73 16.22-6.67a25.16 25.16 0 0 0 1-7.65v-4.2c-2.92 1.6-5.7 4.16-8.6 2.22-3.28-2.18-5.2-5.47-8.8-7.44-2.32-1.26-6.25.43-10.5 2.12v7.3c.02 5.64 1.35 9.88 3.92 12.7z"></path>
<path d="M64 164.74a13.38 13.38 0 0 1-.77 2.16 14.65 14.65 0 0 0 4 .54 13.1 13.1 0 0 0 10.13-4.23 13.77 13.77 0 0 0 2.86-5.14c-6.94-.07-14.9 1.74-16.22 6.67z"></path></g>
<path d="M63.85 141c3.6 2 5.5 5.26 8.8 7.44 2.92 1.94 5.7-.63 8.6-2.22v-62.9a44.18 44.18 0 0 1-22.76 6.22c-1.74 0-3.4-.08-5.15-.24v53.82c4.26-1.7 8.2-3.38 10.5-2.13zM243.2 82.86l-.37-.45c-1-1.13-1.8-1-2.48-.26l-.25 1.5a21.69 21.69 0 0 1 3.1-.8zm-3.52 84.58a41.67 41.67 0 0 0 8-.74 32.58 32.58 0 0 0 4.82-1.17 40.72 40.72 0 0 0 10.87-5.64 66.75 66.75 0 0 0 10.21-9.64v2.5c0 4.73 1.17 8.3 3.4 10.87a11.38 11.38 0 0 0 8.72 3.82 12.29 12.29 0 0 0 4.77-.93 30.1 30.1 0 0 1-4.39-6.7c-3.84-7.88-11.24-13.45-14.38-21.58-.67-1.73-1.42-3.4-2.18-5.1a3.89 3.89 0 0 1-1.22 1.91 3.5 3.5 0 0 1-.45.31 23.14 23.14 0 0 1-8 8.76 22.46 22.46 0 0 1-12.21 3.49h-.08a22.26 22.26 0 0 1-12.29-3.6 24.61 24.61 0 0 1-8.89-11c-2.16-4.9-3.24-10.8-3.24-17.78a54.35 54.35 0 0 1 .75-9.26l-3.73 2c-11 6-5.4 18.86.38 27.18 6.57 9.45 2.37 12.7-1.48 22.68a10.94 10.94 0 0 0-.37 3.45 40.76 40.76 0 0 0 4 2.29 38 38 0 0 0 16.98 3.88zm57.25-70.96c-2.18 7.75-3.3 11.54.7 15.94V86.7a18.61 18.61 0 0 0-3.47.75 8 8 0 0 1 2.76 9.04z" class="G"></path><g class="H">
<path d="M292.4 53.18c2.2 1.6 3.8.82 5.23.82V42.6c-5.4 2.64-3.82-10.55-3.53-14.12a11.28 11.28 0 0 0-8.43-3.27c-3.9 0-6.9 1.33-9 4.07s-3.16 6.64-3.16 11.88V42c3 4.58 5.53 10.48 8.05 15.77 2.76-3.95 5.82-8.26 10.84-4.6z"></path><path d="M297.64 42.6v-2.77c0-4.74-1-8.4-3.07-10.88l-.46-.47c-.3 3.53-1.88 16.76 3.53 14.12z"></path></g>
<path d="M240.35 82.15a6.84 6.84 0 0 0-1 1.78l.75-.27.25-1.5z" class="G"></path><g class="I">
<path d="M220.55 135.12c-5.78-8.32-11.35-21.16-.38-27.18l3.73-2a39.32 39.32 0 0 1 2.24-8 25.69 25.69 0 0 1 8.64-11.46c.27-.2.54-.37.8-.56-.3-3.47-.33-7.64.1-8.93 1.13-3.28-1.2-8.1-4.34-12.75A38.37 38.37 0 0 0 218.6 69c1.82 6.07-3.76 5.36-8.57 12-3.3 4.55-5.4 6.26-7.5 6.34q-5.1 11.24-5.1 27.08a74.83 74.83 0 0 0 2.9 21.1 51.23 51.23 0 0 0 8.69 16.9 40.5 40.5 0 0 0 9.66 8.83 10.94 10.94 0 0 1 .37-3.45c3.9-10 8.1-13.23 1.52-22.68z"></path>
<path d="M210 81c4.8-6.63 10.4-5.92 8.57-12a38.74 38.74 0 0 0-9.48 8 42.58 42.58 0 0 0-6.6 10.37c2.14-.15 4.25-1.86 7.5-6.37z"></path></g>
<path d="M235.7 77c-.44 1.3-.4 5.46-.1 8.93a19.66 19.66 0 0 1 3.76-2 6.84 6.84 0 0 1 1-1.78c.67-.75 1.48-.87 2.48.26.13.14.25.3.37.45a24.28 24.28 0 0 1 4.12-.36h.33a20.67 20.67 0 0 1 12.13 3.9 26.27 26.27 0 0 1 9 11.21 43.51 43.51 0 0 1 3.32 17.6c0 7.3-1.16 13.38-3.32 18.2a25.43 25.43 0 0 1-1 1.95 3.5 3.5 0 0 0 .45-.31 3.89 3.89 0 0 0 1.22-1.91c.76 1.7 1.5 3.37 2.18 5.1 3.14 8.13 10.54 13.7 14.38 21.58a30.1 30.1 0 0 0 4.39 6.7 11.22 11.22 0 0 0 3.87-2.72c2.24-2.5 3.32-6.14 3.32-11v-40.37c-4-4.4-2.9-8.2-.7-15.94 1.16-4.1-.24-11.92-2.8-14-6.3-5.27-19.9-1.2-20.6-6.46v3a52 52 0 0 0-14.81-11.72 37 37 0 0 0-11-3.32 55.71 55.71 0 0 0-7.64-.5 48.42 48.42 0 0 0-8.65.76c3.1 4.66 5.43 9.47 4.3 12.76z" class="G"></path><g class="H">
<path d="M283.28 61.1c-.56-1.08 3.4-5.72 2.85-6.88-2.53-5.3-9.6-7.7-12.58-12.27V75.1a4.31 4.31 0 0 1 .29-1.12c1.86-4.72 13.26-5.5 9.44-12.9zM137 67.47a38 38 0 0 0-4.78 3l7.63 4.35c6.5 3.56 18.9 17.24 18 2.6a47.49 47.49 0 0 1 1.19-14 40.89 40.89 0 0 0-3.52-.16A40.31 40.31 0 0 0 137 67.47zM54.66 13c-3-2.55-5-3.82-5.9-6.9A82.78 82.78 0 0 0 18.75 32c-.62 3.7-1.37 7.4-2.27 11l1 1.1.07-.1c9.6-14.08 22.5-25.4 37.1-31zm-52 53.43A105.1 105.1 0 0 0 .12 80.25c0 .18-.42 5.4.33 4a19.57 19.57 0 0 0 1.49-4.47c1.06-3.6 2.2-7.1 3.44-10.52a2 2 0 0 1-.32-.21 11.41 11.41 0 0 1-2.39-2.62z"></path>
<path d="M15.2 47.93l2.3-3.77c-.33-.35-.66-.93-1-1.25l-1.3 5.02z"></path></g>
<path d="M103.3 17.06a1 1 0 0 1 .57.74l2.37 1.5 1.75 1.26a10.75 10.75 0 0 0-4.69-3.51z" class="G"></path>
<path d="M16.48 43.05c.9-3.65 1.65-7.35 2.27-11a105.23 105.23 0 0 0-15.64 32.6c-.16.6-.3 1.2-.44 1.78a11.41 11.41 0 0 0 2.39 2.62 2 2 0 0 0 .32.21 127 127 0 0 1 9.81-21.33l1.26-4.76a.53.53 0 0 0 .03-.12z" class="H"></path>
<path d="M112.38 20.47c-1.25-3.82-4.4-7.06-7.14-9.63C90.46-1.95 70.78-2.28 53.5 4c-1.6.67-3.2 1.4-4.74 2.17.9 3.07 2.85 4.34 5.9 6.9a55 55 0 0 1 36.55-1.34 61.82 61.82 0 0 1 12.65 6.13 1 1 0 0 0-.57-.74 10.75 10.75 0 0 1 4.71 3.46c2.2 1.53 5.47 3.43 4.38-.1z" class="I"></path>
<path d="M188.78 90.4a28.92 28.92 0 0 0-3.33-10.22 27.7 27.7 0 0 0-11.87-12.45A36.3 36.3 0 0 0 159 63.47a47.49 47.49 0 0 0-1.19 14c.9 14.65-11.5 1-18-2.6-2-1.08-4.73-2.6-7.63-4.35a50.5 50.5 0 0 0-10 10.07v-3.17a17.08 17.08 0 0 0-1.58-7.72 11.22 11.22 0 0 0-4.4-4.81 11.51 11.51 0 0 0-6.06-1.59 10.94 10.94 0 0 0-8.72 3.69c-2.16 2.33-3.24 6-3.24 10.88v74c0 5 1.16 8.87 3.57 11.53a11.93 11.93 0 0 0 3.41 2.72c.93-3 5.68-17.92 7.9-21.48 2.48-4-13.1-13.93-10.54-28.47 1.88-10.63 17.42-19 25.63-22.8a23 23 0 0 1 5.84-6.23 21.08 21.08 0 0 1 12.46-4.07c7 0 11.7 2.25 14 6.73s3.5 11 3.5 19.42v42.6c0 5 1.16 8.87 3.57 11.53a11.74 11.74 0 0 0 9.3 4.07 11.61 11.61 0 0 0 9.13-4c2.33-2.58 3.57-6.47 3.57-11.62v-47.57a104.07 104.07 0 0 0-.74-13.86z" class="G"></path><g class="H">
<path d="M110.73 108a31.43 31.43 0 0 0 0 8.39c2.94-.1 9.73-.65 13.2-3.18q.12-4 .4-7.1c-3.94-2.97-12.8-2.46-13.6 1.88z"></path>
<path d="M123.84 127.67v-7.8l.1-6.65c-3.47 2.53-10.26 3.07-13.2 3.18.36 3 2.18 11.9 13.1 11.27z"></path></g>
<path d="M102.53 116.14c-2.56 14.54 13 24.52 10.54 28.47-2.23 3.56-7 18.52-7.9 21.48a13 13 0 0 0 15-2.55c2.4-2.66 3.65-6.47 3.65-11.7v-32l.1-6.65a9.41 9.41 0 0 1-1 .63 9.41 9.41 0 0 0 1-.63q.12-4 .4-7.1a37 37 0 0 1 1.33-7.69 26.28 26.28 0 0 1 2.5-5.1c-8.13 3.8-23.72 12.2-25.6 22.83zm16.1-.75a21.02 21.02 0 0 0 1.47-.39 29.17 29.17 0 0 1-1.47.39zm2.9-.9a12.35 12.35 0 0 0 1.16-.53 12.35 12.35 0 0 1-1.16.53zm-1.43.5a17.33 17.33 0 0 0 1.33-.47 17.33 17.33 0 0 1-1.33.47zm175.3-27.9a16.54 16.54 0 0 1 2.24-.41V54c-1.43 0-3 .77-5.23-.82-4.23-3.1-7.07-.52-9.5 2.7a3.66 3.66 0 0 0-.34 3.83l.7 1.4c3.82 7.38-7.58 8.17-9.44 12.9a4.31 4.31 0 0 0-.29 1.12v.9c.66 5 13 6.08 19.62 10.7a2.77 2.77 0 0 0 2.23.41z" class="I"></path>
</svg>